<svg version="1.1" xmlns="http://www.w3.org/2000/svg" viewBox="0 0 724.3814427707761 210.900608624325" width="724.3814427707761" height="210.900608624325" filter="invert(93%) hue-rotate(180deg)">
  <!-- svg-source:excalidraw -->

  <defs>
    <style class="style-fonts">
      @font-face {
        font-family: "Virgil";
        src: url("https://excalidraw.com/Virgil.woff2");
      }
      @font-face {
        font-family: "Cascadia";
        src: url("https://excalidraw.com/Cascadia.woff2");
      }
    </style>
  </defs>
  <rect x="0" y="0" width="724.3814427707761" height="210.900608624325" fill="#ffffff"></rect><g transform="translate(10 200.900608624325) rotate(0 352.19072138538803 -95.4503043121625)" stroke="none"><path fill="#1e1e1e" d="M 0,-1.56 Q 0,-1.56 3.00,-1.52 6.00,-1.49 12.58,-2.46 19.16,-3.43 29.92,-6.62 40.68,-9.81 53.20,-15.93 65.72,-22.06 77.40,-30.62 89.07,-39.18 101.58,-53.57 114.10,-67.95 123.42,-81.26 132.75,-94.57 140.34,-105.65 147.92,-116.73 154.38,-125.27 160.83,-133.82 167.05,-139.53 173.28,-145.25 179.45,-148.34 185.62,-151.43 192.79,-152.36 199.95,-153.29 209.02,-153.07 218.09,-152.84 235.07,-148.31 252.05,-143.79 269.66,-137.85 287.27,-131.92 305.17,-125.39 323.07,-118.86 339.91,-111.67 356.76,-104.48 372.75,-96.61 388.74,-88.73 403.56,-80.57 418.39,-72.41 431.52,-64.12 444.65,-55.83 457.21,-48.32 469.78,-40.81 485.11,-32.82 500.43,-24.84 513.11,-19.86 525.78,-14.89 535.90,-12.59 546.03,-10.29 556.03,-10.32 566.04,-10.35 575.81,-12.74 585.58,-15.12 596.25,-20.70 606.93,-26.27 616.98,-36.55 627.03,-46.84 637.31,-61.60 647.59,-76.35 657.96,-95.42 668.33,-114.48 678.34,-136.59 688.35,-158.69 695.77,-175.07 703.18,-191.44 703.30,-191.61 703.42,-191.79 703.58,-191.92 703.75,-192.05 703.95,-192.12 704.15,-192.19 704.37,-192.19 704.58,-192.19 704.78,-192.13 704.98,-192.06 705.15,-191.93 705.32,-191.81 705.44,-191.63 705.56,-191.46 705.62,-191.25 705.68,-191.05 705.67,-190.84 705.66,-190.62 705.58,-190.43 705.51,-190.23 705.37,-190.06 705.23,-189.90 705.05,-189.79 704.87,-189.68 704.67,-189.63 704.46,-189.58 704.25,-189.61 704.04,-189.63 703.84,-189.72 703.65,-189.80 703.49,-189.95 703.34,-190.09 703.24,-190.28 703.14,-190.47 703.10,-190.68 703.06,-190.89 703.10,-191.10 703.13,-191.31 703.23,-191.49 703.32,-191.68 703.48,-191.83 703.63,-191.98 703.82,-192.07 704.02,-192.16 704.23,-192.18 704.44,-192.21 704.65,-192.16 704.85,-192.12 705.04,-192.01 705.22,-191.90 705.36,-191.74 705.50,-191.58 705.58,-191.38 705.66,-191.19 705.67,-190.98 705.68,-190.76 705.63,-190.56 705.57,-190.35 705.57,-190.35 705.57,-190.35 698.16,-173.98 690.74,-157.61 680.69,-135.42 670.64,-113.22 660.19,-94.04 649.75,-74.85 639.33,-59.93 628.91,-45.01 618.54,-34.48 608.17,-23.96 597.19,-18.27 586.21,-12.58 576.14,-10.15 566.06,-7.72 555.76,-7.72 545.46,-7.73 535.14,-10.08 524.82,-12.44 512.02,-17.47 499.22,-22.51 483.83,-30.53 468.43,-38.55 455.84,-46.08 443.25,-53.61 430.18,-61.86 417.12,-70.11 402.35,-78.24 387.58,-86.37 371.65,-94.22 355.73,-102.06 338.95,-109.23 322.16,-116.39 304.30,-122.91 286.43,-129.43 268.90,-135.33 251.37,-141.24 234.69,-145.73 218.01,-150.21 209.14,-150.44 200.27,-150.68 193.51,-149.87 186.75,-149.06 180.90,-146.17 175.04,-143.28 168.99,-137.75 162.94,-132.21 156.53,-123.72 150.12,-115.23 142.54,-104.13 134.95,-93.03 125.54,-79.60 116.13,-66.18 103.41,-51.59 90.69,-36.99 78.82,-28.29 66.94,-19.58 54.21,-13.34 41.49,-7.11 30.54,-3.84 19.59,-0.57 12.80,0.45 6.01,1.49 3.00,1.52 0,1.56 -0.18,1.53 -0.37,1.51 -0.54,1.45 -0.72,1.38 -0.88,1.27 -1.03,1.16 -1.16,1.02 -1.28,0.88 -1.37,0.72 -1.46,0.55 -1.50,0.37 -1.55,0.18 -1.55,-0.00 -1.55,-0.18 -1.50,-0.37 -1.46,-0.55 -1.37,-0.72 -1.28,-0.88 -1.16,-1.02 -1.03,-1.16 -0.88,-1.27 -0.72,-1.38 -0.54,-1.45 -0.37,-1.51 -0.18,-1.53 0.00,-1.56 0.00,-1.56 L 0,-1.56 Z"></path></g></svg>